<svg xmlns="http://www.w3.org/2000/svg" xmlns:xlink="http://www.w3.org/1999/xlink" width="2000" zoomAndPan="magnify" viewBox="0 0 1500 1499.999933" height="2000" preserveAspectRatio="xMidYMid meet" version="1.0"><defs><g/></defs><rect x="-150" width="1800" fill="#ffffff" y="-149.999993" height="1799.99992" fill-opacity="1"/><rect x="-150" width="1800" fill="#f5f2eb" y="-149.999993" height="1799.99992" fill-opacity="1"/><g fill="#000000" fill-opacity="1"><g transform="translate(308.385914, 1182.357329)"><g><path d="M 497.359375 -904.515625 C 552.484375 -904.515625 597.789062 -896.367188 633.28125 -880.078125 C 668.78125 -863.796875 700.3125 -844.800781 727.875 -823.09375 C 744.582031 -810.5625 757.316406 -809.097656 766.078125 -818.703125 C 774.847656 -828.304688 780.90625 -851.066406 784.25 -886.984375 L 813.0625 -886.984375 C 811.394531 -854.410156 810.140625 -814.945312 809.296875 -768.59375 C 808.460938 -722.238281 808.046875 -660.640625 808.046875 -583.796875 L 779.234375 -583.796875 C 775.054688 -622.222656 769.628906 -655.003906 762.953125 -682.140625 C 756.273438 -709.285156 747.085938 -733.296875 735.390625 -754.171875 C 723.703125 -775.054688 707 -793.851562 685.28125 -810.5625 C 664.394531 -831.4375 640.171875 -846.882812 612.609375 -856.90625 C 585.054688 -866.9375 556.242188 -871.953125 526.171875 -871.953125 C 481.078125 -871.953125 442.660156 -860.046875 410.921875 -836.234375 C 379.179688 -812.429688 353.492188 -780.066406 333.859375 -739.140625 C 314.234375 -698.222656 299.828125 -652.082031 290.640625 -600.71875 C 281.460938 -549.351562 276.875 -496.109375 276.875 -440.984375 C 276.875 -385.023438 281.675781 -331.363281 291.28125 -280 C 300.882812 -228.632812 315.914062 -182.90625 336.375 -142.8125 C 356.832031 -102.726562 383.347656 -70.992188 415.921875 -47.609375 C 448.492188 -24.222656 486.914062 -12.53125 531.1875 -12.53125 C 558.75 -12.53125 586.519531 -17.75 614.5 -28.1875 C 642.476562 -38.625 666.488281 -53.867188 686.53125 -73.921875 C 719.101562 -98.972656 741.234375 -130.082031 752.921875 -167.25 C 764.617188 -204.414062 773.390625 -253.898438 779.234375 -315.703125 L 808.046875 -315.703125 C 808.046875 -236.359375 808.460938 -172.253906 809.296875 -123.390625 C 810.140625 -74.535156 811.394531 -33.40625 813.0625 0 L 784.25 0 C 780.90625 -35.914062 775.265625 -58.46875 767.328125 -67.65625 C 759.398438 -76.84375 746.25 -75.585938 727.875 -63.890625 C 696.96875 -42.171875 664.1875 -23.164062 629.53125 -6.875 C 594.875 9.40625 550.398438 17.546875 496.109375 17.546875 C 407.578125 17.546875 330.109375 -0.410156 263.703125 -36.328125 C 197.304688 -72.242188 145.734375 -124.023438 108.984375 -191.671875 C 72.242188 -259.328125 53.875 -340.757812 53.875 -435.96875 C 53.875 -529.507812 72.875 -611.359375 110.875 -681.515625 C 148.875 -751.671875 201.070312 -806.375 267.46875 -845.625 C 333.863281 -884.882812 410.492188 -904.515625 497.359375 -904.515625 Z M 497.359375 -904.515625 "/></g></g></g></svg>